<svg width="60" height="59" viewBox="0 0 60 59" fill="none" xmlns="http://www.w3.org/2000/svg">
<path d="M59.0076 29.4371C59.0076 45.6445 45.8672 58.7903 29.6544 58.7903C13.4471 58.7903 0.30127 45.6499 0.30127 29.4371C0.30127 13.2244 13.4417 0.0839844 29.6544 0.0839844C45.8672 0.0839844 59.0076 13.2244 59.0076 29.4371Z" fill="#FFC71F"/>
<path d="M17.3271 27.855C15.4577 27.8929 13.8267 29.1555 13.8267 27.2264V25.8284C13.8267 23.9047 15.4035 22.3279 17.3271 22.3279C19.2508 22.3279 20.8276 23.9047 20.8276 25.8284V27.2264C20.8222 29.1446 19.2399 27.8116 17.3271 27.855Z" fill="#403108"/>
<path d="M42.0957 27.855C40.2262 27.8929 38.5952 29.1555 38.5952 27.2264V25.8284C38.5952 23.9047 40.1721 22.3279 42.0957 22.3279C44.0193 22.3279 45.5962 23.9047 45.5962 25.8284V27.2264C45.5962 29.1446 44.0085 27.8116 42.0957 27.855Z" fill="#403108"/>
<path d="M12.6235 17.787C12.6235 17.787 14.6393 13.7067 18.2482 15.5436" stroke="#403108" stroke-width="4" stroke-miterlimit="10" stroke-linecap="round"/>
<path d="M41.5649 15.5654C45.1575 13.7013 47.1625 17.7437 47.1625 17.7437" stroke="#403108" stroke-width="4" stroke-miterlimit="10" stroke-linecap="round"/>
<path fill-rule="evenodd" clip-rule="evenodd" d="M39.8581 41.5371C39.8581 42.2852 39.2516 42.8917 38.5034 42.8917H20.0798C19.3316 42.8917 18.7251 42.2852 18.7251 41.5371C18.7251 40.7889 19.3316 40.1824 20.0798 40.1824H38.5034C39.2516 40.1824 39.8581 40.7889 39.8581 41.5371Z" fill="#403108"/>
</svg>
