<svg width="60" height="59" viewBox="0 0 60 59" fill="none" xmlns="http://www.w3.org/2000/svg">
<path d="M59.5163 29.4371C59.5163 45.6445 46.376 58.7903 30.1632 58.7903C13.9558 58.7903 0.81543 45.6445 0.81543 29.4371C0.81543 13.2244 13.9558 0.0839844 30.1686 0.0839844C46.376 0.0839844 59.5163 13.2244 59.5163 29.4371Z" fill="#FFC71F"/>
<path d="M12.4707 21.683C12.4707 21.683 15.0934 16.8874 19.6668 19.1904" stroke="#403108" stroke-width="4" stroke-miterlimit="10" stroke-linecap="round"/>
<path d="M37.0991 21.3199C37.0991 21.3199 39.7218 16.5244 44.2952 18.8273" stroke="#403108" stroke-width="4" stroke-miterlimit="10" stroke-linecap="round"/>
<path d="M42.6264 38.1885C42.6264 38.1885 35.5604 51.1067 23.2383 44.9077" stroke="#403108" stroke-width="4" stroke-miterlimit="10" stroke-linecap="round"/>
<path d="M41.662 24.1864C38.9581 24.777 38.3024 26.9337 38.1507 28.1908C38.1073 28.5593 38.5083 28.8139 38.8226 28.6135C41.0389 27.1883 43.4773 26.7819 46.0729 27.0583C46.4359 27.0962 46.6798 26.7006 46.4901 26.3864C45.8453 25.3189 44.3443 23.6011 41.662 24.1864Z" fill="#403108"/>
<path d="M18.0958 32.4175C16.1884 32.4175 14.644 30.8732 14.644 28.9658V27.5841C14.644 25.6875 16.1938 24.1323 18.0958 24.1323C19.9923 24.1323 21.5475 25.6821 21.5475 27.5841V28.9658C21.5475 30.8678 19.9923 32.4175 18.0958 32.4175Z" fill="#403108"/>
</svg>
