<svg width="60" height="59" viewBox="0 0 60 59" fill="none" xmlns="http://www.w3.org/2000/svg">
<path d="M59.0267 29.4372C59.0267 45.6445 45.8863 58.7903 29.6735 58.7903C13.4661 58.7903 0.320312 45.6499 0.320312 29.4372C0.320312 13.2244 13.4607 0.0839844 29.6735 0.0839844C45.8863 0.0839844 59.0267 13.2244 59.0267 29.4372Z" fill="#FF586F"/>
<path d="M19.9521 30.0386C18.2615 30.0386 16.896 28.6677 16.896 26.9824V25.7578C16.896 24.078 18.2723 22.7017 19.9521 22.7017C21.6319 22.7017 23.0083 24.078 23.0083 25.7578V26.9824C23.0083 28.6622 21.6319 30.0386 19.9521 30.0386Z" fill="#403108"/>
<path d="M39.4922 30.0386C37.8124 30.0386 36.436 28.6622 36.436 26.9824V25.7578C36.436 24.078 37.8124 22.7017 39.4922 22.7017C41.172 22.7017 42.5483 24.078 42.5483 25.7578V26.9824C42.5483 28.6622 41.172 30.0386 39.4922 30.0386Z" fill="#403108"/>
<path d="M22.792 42.973C22.792 39.7597 25.8969 37.1533 29.7225 37.1533C33.5481 37.1533 36.6531 39.7597 36.6531 42.973" stroke="#403108" stroke-width="3" stroke-miterlimit="10" stroke-linecap="round" stroke-linejoin="round"/>
<path d="M35.1357 20.816C37.6121 17.5864 41.0422 16.9199 41.0422 16.9199" stroke="#403108" stroke-width="4" stroke-miterlimit="10" stroke-linecap="round"/>
<path d="M24.3092 20.6751C21.8329 17.4456 18.4028 16.7791 18.4028 16.7791" stroke="#403108" stroke-width="4" stroke-miterlimit="10" stroke-linecap="round"/>
</svg>
