<svg width="59" height="59" viewBox="0 0 59 59" fill="none" xmlns="http://www.w3.org/2000/svg">
<path d="M58.7527 30.3514C58.2488 46.5534 44.702 59.2765 28.5001 58.7726C12.2981 58.2686 -0.425019 44.7219 0.078921 28.5199C0.582861 12.318 14.1242 -0.410605 30.3262 0.0987537C46.5281 0.602694 59.2567 14.1441 58.7527 30.3514Z" fill="#FFC71F"/>
<path d="M14.3623 34.7244C13.7283 34.7244 13.2893 35.3692 13.5278 35.9599C14.7795 39.016 18.9682 46.7214 29.3504 46.7214C39.7272 46.7214 44.008 38.9672 45.2977 35.8786C45.5469 35.2879 45.1026 34.6377 44.4632 34.6377C34.4277 36.6426 24.3923 36.6697 14.3623 34.7244Z" fill="#403108"/>
<path d="M48.3646 19.0317C46.9828 17.5416 45.0429 17.4874 43.3685 18.4031C42.9567 16.5391 41.6399 15.1194 39.6079 15.0544C37.0557 14.9731 35.5981 16.9997 35.5168 19.5519C35.4572 21.3943 37.0124 25.61 37.8848 27.8154C38.1991 28.612 39.0823 29.013 39.8897 28.7258C42.1222 27.9292 46.3217 26.3253 47.671 25.0736C49.5404 23.3342 50.104 20.9012 48.3646 19.0317Z" fill="#FF586F"/>
<path d="M10.5533 19.0317C11.9351 17.5416 13.875 17.4874 15.5493 18.4031C15.9612 16.5391 17.2779 15.1194 19.3099 15.0544C21.8621 14.9731 23.3198 16.9997 23.4011 19.5519C23.4607 21.3943 21.9055 25.61 21.0331 27.8154C20.7188 28.612 19.8355 29.013 19.0282 28.7258C16.7957 27.9292 12.5961 26.3253 11.2469 25.0736C9.37743 23.3342 8.81389 20.9012 10.5533 19.0317Z" fill="#FF586F"/>
</svg>
