<svg width="60" height="59" viewBox="0 0 60 59" fill="none" xmlns="http://www.w3.org/2000/svg">
<path d="M59.5169 29.4372C59.5169 45.6445 46.3765 58.7903 30.1637 58.7903C13.9564 58.7903 0.810547 45.6499 0.810547 29.4372C0.815966 13.2244 13.9564 0.0839844 30.1637 0.0839844C46.3765 0.0839844 59.5169 13.2244 59.5169 29.4372Z" fill="#FFC71F"/>
<path d="M57.2787 14.1834C57.2787 16.8765 55.0949 19.0657 52.3964 19.0657C49.6979 19.0657 47.5142 16.8819 47.5142 14.1834C47.5142 11.4849 52.3964 2.28394 52.3964 2.28394C52.3964 2.28394 57.2787 11.4903 57.2787 14.1834Z" fill="#87E4F5"/>
<path d="M39.0396 45.2545C38.3622 43.6018 36.0972 39.4402 30.4889 39.4402C24.8805 39.4402 22.5667 43.6343 21.8677 45.3032" stroke="#403108" stroke-width="4" stroke-miterlimit="10" stroke-linecap="round"/>
<path d="M15.7935 21.8022L22.8378 25.785L15.8476 29.7623" stroke="#403108" stroke-width="5" stroke-miterlimit="10" stroke-linecap="round" stroke-linejoin="round"/>
<path d="M43.6889 29.7623L36.8018 25.785L43.6347 21.8022" stroke="#403108" stroke-width="5" stroke-miterlimit="10" stroke-linecap="round" stroke-linejoin="round"/>
</svg>
